<svg xmlns="http://www.w3.org/2000/svg" viewBox="0 0 240 56" fill="#1A1A1A">
  <!--
    DRINK LLC — Primary Logo
    Hydration & recovery brand
    Clean wordmark with water drop accent on the I
  -->

  <!-- D -->
  <path d="M0 2h16c15.5 0 26 10.5 26 26s-10.5 26-26 26H0V2zm9.5 8.5v35H16c10 0 17-7.5 17-17.5S26 10.5 16 10.5H9.5z"/>

  <!-- R -->
  <path d="M52 2h17c10.5 0 17 5.5 17 14.5 0 7-4 12-10.5 13.5L88 54H77L65.5 31H61.5V54H52V2zm9.5 8.5V23H69c5 0 8-3 8-6.5S74 10 69 10.5H61.5z"/>

  <!-- I stem -->
  <path d="M96 16h9.5V54H96V16z"/>

  <!-- Water drop replaces I dot — brand accent -->
  <path d="M100.75 1 L106.5 9.5 C108.5 12.5 108.5 14 106.5 16 C104.5 18 97 18 95 16 C93 14 93 12.5 95 9.5 Z" fill="#7CB518"/>

  <!-- N -->
  <path d="M116 2h8.5l20 36V2H154V54h-8.5l-20-36V54H116V2z"/>

  <!-- K -->
  <path d="M164 2h9.5v22L194 2h12L184 26l23 28h-12l-17-21-4.5 5V54H164V2z"/>
</svg>
